<svg xmlns="http://www.w3.org/2000/svg" id="_레이어_2" viewBox="0 0 489.78 210.8"><defs><style>.cls-1{fill:#003780}.cls-2{fill:#ee7500}</style></defs><g id="_레이어_1-2"><path d="M21.56 75.89c0 5.36-4.35 9.7-9.7 9.7s-9.71-4.34-9.71-9.7 4.35-9.71 9.71-9.71 9.7 4.35 9.7 9.71M270.53 75.89c0 5.36-4.34 9.7-9.71 9.7s-9.7-4.34-9.7-9.7 4.35-9.71 9.7-9.71 9.71 4.35 9.71 9.71M265.9 109.43c-.06-.19-.12-.37-.19-.56-.04-.12-.08-.24-.14-.36-.07-.16-.14-.31-.21-.46-.06-.14-.13-.27-.2-.41-.07-.13-.15-.25-.22-.38-.08-.14-.17-.29-.26-.43-.08-.12-.17-.23-.25-.34-.1-.14-.2-.27-.3-.4-.1-.12-.21-.24-.32-.36-.1-.11-.19-.22-.3-.32-.13-.13-.27-.26-.41-.38-.09-.08-.17-.16-.26-.24-.15-.12-.31-.24-.46-.35-.09-.07-.18-.14-.28-.21-.14-.1-.29-.18-.44-.27-.12-.07-.25-.15-.37-.22l-.36-.18c-.17-.08-.34-.17-.52-.25-.08-.04-.17-.07-.26-.1-.22-.09-.45-.17-.68-.24-.06-.02-.13-.04-.19-.05-.25-.07-.51-.13-.76-.18l-.18-.03c-.26-.05-.51-.08-.77-.11-.07 0-.13-.01-.2-.01-.25-.02-.5-.03-.75-.03h-.22c-.24 0-.48.02-.72.05-.08 0-.16.02-.25.03-.23.03-.46.07-.69.11l-.25.06c-.23.05-.46.11-.68.18l-.18.06c-.25.08-.49.17-.73.27-.01 0-.03.01-.05.02a9.745 9.745 0 0 0-3.01 2.03c-.04.04-.07.08-.1.11-.17.18-.34.36-.5.56l-.21.27c-.12.15-.23.3-.34.46-.08.12-.15.24-.22.36-.09.15-.18.29-.27.44l-.18.36c-.08.17-.16.33-.24.51-.05.11-.08.22-.13.33-.07.2-.15.39-.21.6 0 .03-.02.07-.03.1-6.49 21.99-20.84 42.42-40.39 57.53-20.79 16.06-45.14 24.55-70.43 24.55-50.07 0-97.8-35.26-111.03-82.01a9.638 9.638 0 0 0-11.9-6.65c-5.12 1.45-8.1 6.78-6.65 11.9 7.49 26.5 24.63 50.8 48.26 68.45 23.82 17.8 52.7 27.6 81.32 27.6s58.03-9.88 82.22-28.57c15.84-12.24 28.75-27.56 37.72-44.46 3.9-7.36 7.06-15.02 9.38-22.86.55-1.86.51-3.74 0-5.47Z" class="cls-2"/><path d="M17.03 32.41a16.14 16.14 0 0 0-3.64-1.38c-2.64-.66-7.24-1.46-8.28-4.34-.66-1.84.31-3.94 1.97-4.88 2.09-1.18 5.31-1.39 7.47-.23.66.36 1.28.97 2.03 1.68.04.04.09.09.14.13.02.02.04.04.07.06.35.26.78.43 1.26.42 1.1-.01 1.97-.87 1.96-1.91 0-.49-.21-.94-.54-1.28-.8-.86-2.02-1.8-3.12-2.4-1.39-.76-3.39-1.11-5.07-1.11-1.85 0-3.82.27-5.13.8-1.32.54-2.39 1.2-3.23 2-.84.8-1.45 1.68-1.84 2.64-.39.96-.58 1.87-.58 2.73 0 1.9.38 3.41 1.12 4.52.75 1.11 1.68 1.76 2.8 2.42 1.12.66 2.32 1.18 3.64 1.55 1.32.37 3.43.88 4.54 1.28 1.37.49 2.9.95 3.68 2.23.78 1.28.57 2.99-.16 4.24-1.67 2.85-5.69 3.04-8.61 2.27-.96-.25-1.78-.65-2.54-1.26-.92-.75-1.66-2.05-3.03-2.03-1.09 0-1.97.87-1.96 1.91 0 .41.15.79.38 1.1 2.84 3.75 8.81 5.32 13.38 3.95 1.36-.41 2.97-1.14 4.06-2.02.95-.77 1.71-1.72 2.27-2.85.56-1.13.85-2.4.85-3.8 0-1.76-.38-3.15-1.13-4.15-.75-1.01-1.68-1.68-2.79-2.27M111.88 17.6c-1.09 0-1.98.89-1.98 1.98v16.24c0 .91-.13 1.85-.37 2.83-.25.98-.66 1.88-1.24 2.7-.57.83-1.33 1.5-2.27 2.02s-2.1.78-3.47.78-2.53-.26-3.47-.78c-.93-.52-1.7-1.2-2.27-2.02a8.28 8.28 0 0 1-1.24-2.7c-.25-.98-.37-1.92-.37-2.83V19.58c0-1.1-.89-1.98-1.98-1.98s-1.98.89-1.98 1.98v16.86c0 1.71.28 3.25.86 4.65.58 1.39 1.38 2.6 2.4 3.61 1.02 1.02 2.21 1.8 3.59 2.35s2.86.83 4.46.83 3.08-.27 4.46-.83c1.38-.55 2.57-1.33 3.59-2.35s1.82-2.22 2.4-3.61c.57-1.39.87-2.94.87-4.65V19.58c0-1.1-.89-1.98-1.98-1.98M194.53 24.34c.9-1.08 1.99-1.92 3.26-2.54 1.27-.62 2.69-.93 4.26-.93 1.28 0 2.48.3 3.71.81.97.39 1.99 1.3 2.64 2.08.35.38.83.62 1.37.62 1.04 0 1.88-.89 1.88-1.98 0-.41-.12-.8-.33-1.11-.65-1.02-1.99-2.27-3.76-3.01-1.76-.75-3.56-1.12-5.4-1.12-2.14 0-4.11.39-5.89 1.16-1.78.77-3.3 1.85-4.57 3.24-1.27 1.39-2.26 3.04-2.97 4.95-.68 1.85-1.02 3.85-1.04 6.01.02 2.16.37 4.16 1.04 6.01.71 1.91 1.7 3.56 2.97 4.95 1.27 1.39 2.8 2.47 4.57 3.24 1.78.77 3.74 1.16 5.89 1.16 1.84 0 3.64-.37 5.4-1.11 1.77-.74 3.11-1.99 3.76-3.01.21-.32.33-.71.33-1.12 0-1.09-.84-1.98-1.88-1.98-.54 0-1.02.24-1.37.63-.65.77-1.68 1.68-2.64 2.07-1.24.5-2.43.81-3.71.81-1.57 0-2.99-.31-4.26-.93a9.756 9.756 0 0 1-3.26-2.54c-.9-1.08-1.6-2.34-2.1-3.78-.47-1.37-.71-2.84-.74-4.39.02-1.56.26-3.03.74-4.4.5-1.45 1.2-2.7 2.1-3.77M28.43 17.58c-1.09 0-1.98.89-1.98 1.98v25.59c0 1.09.89 1.98 1.98 1.98s1.99-.89 1.99-1.98V19.56c0-1.1-.89-1.98-1.98-1.98M58.54 17.58c-1.1 0-1.98.89-1.98 1.98v10.48H41.4V19.56c0-1.1-.89-1.98-1.98-1.98s-1.98.89-1.98 1.98v25.59c0 1.09.89 1.98 1.98 1.98s1.98-.89 1.98-1.98v-11.4h15.16v11.4c0 1.09.88 1.98 1.98 1.98s1.99-.89 1.99-1.98V19.56c0-1.1-.89-1.98-1.98-1.98M221.12 45.14V19.59c0-1.1-.88-1.98-1.98-1.98s-1.98.89-1.98 1.98v25.56c0 1.1.89 1.98 1.98 1.98s1.98-.89 1.98-1.98v-.02ZM171.73 30.78h-8.04c-.93.06-1.66.87-1.66 1.86s.74 1.8 1.66 1.86 6.16 0 6.16 0v8.13c-.84.49-1.85.87-3.04 1.14-1.19.26-2.45.39-3.79.39-1.54 0-2.97-.3-4.28-.89-1.31-.59-2.45-1.41-3.41-2.46-.97-1.05-1.73-2.28-2.27-3.7-.55-1.42-.83-2.95-.83-4.6s.25-3.1.74-4.52c.5-1.42 1.2-2.65 2.12-3.7.92-1.04 2.02-1.88 3.3-2.49 1.28-.62 2.72-.93 4.32-.93 1.41 0 2.76.23 4.04.68 1.24.44 2.5 1.22 3.74 2.23.03.02.05.05.08.06.01 0 .02.02.03.03.29.18.62.3.99.3 1.04 0 1.88-.89 1.88-1.99 0-.6-.26-1.13-.65-1.49-.86-.79-2.23-1.85-3.84-2.52-1.62-.68-3.71-1.01-6.28-1.01-2.12 0-4.07.39-5.84 1.18-1.78.79-3.31 1.86-4.57 3.24-1.27 1.38-2.26 3-2.98 4.87-.72 1.87-1.08 3.9-1.08 6.07s.34 4.02 1 5.88c.67 1.86 1.63 3.49 2.9 4.89 1.27 1.4 2.83 2.52 4.67 3.34 1.84.83 3.94 1.24 6.29 1.24.84 0 1.73-.05 2.69-.16.95-.11 1.9-.28 2.82-.52.93-.23 1.83-.51 2.69-.85.86-.33 1.63-.71 2.31-1.16V32.75c0-1.09-.84-1.98-1.89-1.98M243.96 17.61h-16.59c-1.03 0-1.86.83-1.86 1.86s.83 1.86 1.86 1.86h6.31v23.83c0 1.09.88 1.98 1.98 1.98s1.98-.89 1.98-1.98V21.33h6.31c1.03 0 1.86-.84 1.86-1.86s-.83-1.86-1.86-1.86M271.73 20.85l.12-.18.02-.03c.17-.31.28-.66.28-1.04 0-1.17-.95-1.99-2.11-1.99-.73 0-1.38.37-1.76.94l-7.65 12.19-7.64-12.19a2.1 2.1 0 0 0-1.76-.94c-1.16 0-2.11.82-2.11 1.99 0 .38.1.73.27 1.04v.02c.05.06.09.13.13.19l9.13 13.82v10.48c0 1.1.89 1.99 1.98 1.99s1.98-.89 1.98-1.98V34.67l9.13-13.82ZM83.72 34.05h.04c1.02 0 1.85-.83 1.85-1.86s-.83-1.86-1.85-1.86h-13.1v-9h13.11a1.86 1.86 0 0 0 0-3.72H68.68c-1.09 0-1.98.89-1.98 1.98v25.56c0 1.1.89 1.98 1.98 1.98h15.09c1.02 0 1.85-.83 1.85-1.86s-.83-1.86-1.85-1.86h-13.1v-9.37h13.06ZM140.95 17.61c-1.03 0-1.87.93-1.87 2.06v19.79l-15.65-20.98c-.35-.55-.93-.88-1.53-.88-1.03 0-1.87.93-1.87 2.06v25.4c0 1.14.84 2.07 1.87 2.07s1.87-.93 1.87-2.07V25.38l15.68 20.86c.35.55.92.88 1.53.88h-.03c1.03 0 1.87-.93 1.87-2.07v-25.4c0-1.14-.84-2.06-1.87-2.06M324.07 191.74c-5.32 0-9.64-4.32-9.64-9.64V84.09c0-5.32 4.32-9.64 9.64-9.64s9.64 4.32 9.64 9.64v98.01c0 5.33-4.32 9.64-9.64 9.64M460.71 17.63h-34.12V9.64c0-5.32-4.32-9.64-9.64-9.64s-9.64 4.32-9.64 9.64v7.99h-33.86c-5.32 0-9.64 4.32-9.64 9.64s4.32 9.64 9.64 9.64h11.53A36.113 36.113 0 0 0 380.7 54c0 20.06 16.32 36.38 36.38 36.38S453.46 74.06 453.46 54c0-6.17-1.55-11.99-4.28-17.09h11.54c5.32 0 9.64-4.32 9.64-9.64s-4.32-9.64-9.64-9.64ZM417.08 71.1c-9.43 0-17.09-7.67-17.09-17.1s7.67-17.09 17.09-17.09 17.09 7.67 17.09 17.09-7.67 17.1-17.09 17.1ZM301.02 162.87c-17.24-14.71-29.37-33.15-35.08-53.33-.01-.04-.03-.07-.04-.11.51 1.73.55 3.61 0 5.47-2.32 7.84-5.47 15.5-9.38 22.86 7.71 14.8 18.51 28.3 31.97 39.78a9.608 9.608 0 0 0 6.25 2.31c2.73 0 5.43-1.15 7.34-3.38 3.46-4.05 2.97-10.14-1.08-13.59Z" class="cls-1"/><path d="M489.42 102.87c-1.46-5.25-6.91-8.31-12.15-6.85-46.09 12.86-84.1 4.99-112.97-23.4-22.07-21.7-30.57-47.9-30.65-48.16-1.64-5.19-7.17-8.07-12.36-6.44a9.858 9.858 0 0 0-6.46 12.36c.39 1.24 9.77 30.56 35.05 55.72 9.63 9.59 22.35 19.27 38.58 26.11-14.92 9.5-24.84 26.17-24.84 45.13 0 29.48 23.99 53.47 53.47 53.47s53.47-23.99 53.47-53.47c0-14.28-5.64-27.25-14.78-36.85 8.46-1.05 17.38-2.83 26.8-5.46 5.25-1.46 8.31-6.91 6.85-12.15Zm-72.34 88.21c-18.61 0-33.75-15.14-33.75-33.75s15.14-33.75 33.75-33.75 33.75 15.14 33.75 33.75-15.14 33.75-33.75 33.75Z" class="cls-1"/></g></svg>