<svg xmlns="http://www.w3.org/2000/svg" xml:space="preserve" width="139" height="40" overflow="hidden"><defs><clipPath id="a"><path d="M570 340h139v40H570z"/></clipPath><clipPath id="b"><path d="M571 340h138v40H571z"/></clipPath><clipPath id="c"><path d="M571 340h138v40H571z"/></clipPath><clipPath id="d"><path d="M571 340h138v40H571z"/></clipPath></defs><g clip-path="url(#a)" transform="translate(-570 -340)"><g clip-path="url(#b)"><g clip-path="url(#c)"><g clip-path="url(#d)"><path fill="#FFF" d="M604.85 363.891a2.579 2.579 0 0 0-1.274-2.006l-3.216-1.875 3.216-1.865a2.61 2.61 0 0 0 1.274-2.076l.498-6.017-5.476-2.607a2.562 2.562 0 0 0-2.38.1l-3.255 1.875v-3.74c0-.846-.408-1.64-1.095-2.126l-4.968-3.53-4.978 3.53a2.603 2.603 0 0 0-1.095 2.126v3.74l-3.206-1.875a2.562 2.562 0 0 0-2.38-.1L571 350.052l.548 6.017c.087.836.564 1.58 1.284 2.006l3.216 1.865-3.216 1.935a2.609 2.609 0 0 0-1.284 2.006l-.548 6.107 5.516 2.577a2.641 2.641 0 0 0 2.38-.11l3.215-1.875v3.75c0 .844.408 1.634 1.095 2.116l4.978 3.53 4.978-3.53a2.583 2.583 0 0 0 1.095-2.116v-3.75l3.226 1.875a2.622 2.622 0 0 0 2.37.11l5.515-2.577Z"/><path fill="#2659A6" d="M587.925 359.569v-5.897l-5.067 2.949 5.067 2.948ZM582.609 374.33a2.07 2.07 0 0 0 .886 1.705l4.43 3.149V367.2l-5.316 3.089ZM587.925 340.816l-4.43 3.139a2.12 2.12 0 0 0-.886 1.725v10.51l5.316-3.13ZM588.423 353.672v5.897l5.068-2.948-5.068-2.949Z"/><path fill="#8BADDC" d="m588.423 379.184 4.48-3.149a2.07 2.07 0 0 0 .886-1.705v-4.01l-5.366-3.12ZM592.903 343.955l-4.48-3.139v12.245l5.317 3.098v-10.48a2.121 2.121 0 0 0-.837-1.724Z"/><path fill="#0091D3" d="m576.725 347.896-4.919 2.297 10.305 6.017v-6.158l-3.465-2.005a2.068 2.068 0 0 0-1.921-.15ZM604.79 369.376l-.487-5.445a2.118 2.118 0 0 0-.996-1.624l-9.07-5.235v6.187ZM593.74 362.948v-5.896L588.672 360l5.067 2.948ZM588.423 366.328l5.068-2.948-5.068-2.949v5.897Z"/><path fill="#73C4EF" d="M572.045 356.07c.052.67.423 1.276.996 1.624l3.465 2.005 5.316-3.088-10.304-6.017ZM593.988 363.67l-5.316 3.1 9.03 5.254c.59.336 1.305.366 1.922.08l4.918-2.296Z"/><path fill="#00B3CD" d="M582.609 357.052v5.896l5.067-2.948-5.067-2.948ZM587.925 366.328v-5.897l-5.067 2.949 5.067 2.948ZM582.36 363.67l-10.554 6.138 4.919 2.306a2.097 2.097 0 0 0 1.921-.08l9.03-5.255-5.316-3.099ZM594.486 356.62l5.317 3.09 3.474-2.006c.572-.35.942-.954.996-1.625l.488-5.445Z"/><path fill="#95D3E6" d="m572.045 363.931-.487 5.445 3.504-2.005 7.049-4.102v-6.197l-9.03 5.235a2.107 2.107 0 0 0-1.036 1.624ZM599.624 347.896a2.068 2.068 0 0 0-1.922.09l-3.465 2.006v6.177l10.315-6.016Z"/><path fill="#FFF" d="M622.204 371.322v-.632h-2.011v-1.434h1.822v-.612h-1.822v-1.394h1.911v-.631h-2.658v4.703h2.758ZM630.507 368.644h-2.051v-2.025h-.747v4.703h.747v-2.066h2.051v2.066h.747v-4.703h-.747v2.025ZM645.56 366.619h.747v4.703h-.747ZM664.248 366.619h.746v4.703h-.746ZM706.71 366.569l-1.911 4.753h.826l.488-1.224h1.573l.488 1.224H709l-1.922-4.753Zm-.309 2.918.399-1.003.139-.522.139.522.389 1.003ZM673.218 366.619l-1.224 1.895-1.235-1.895h-.886l1.742 2.577v2.126h.747v-2.126l1.742-2.577h-.886ZM615.055 367.25h1.354v4.072h.747v-4.072h1.354v-.631h-3.455v.631ZM665.93 367.25h1.354v4.072h.747v-4.072h1.344v-.631h-3.445v.631ZM655.128 371.322v-.632h-2.011v-1.434h1.822v-.612h-1.822v-1.394h1.912v-.631h-2.659v4.703h2.758ZM704.321 371.322v-.632h-2.001v-1.434h1.821v-.612h-1.821v-1.394h1.911v-.631h-2.658v4.703h2.748ZM682.179 366.619v4.703h.746v-2.066h1.822v-.612h-1.822v-1.394h1.912v-.631h-2.658ZM623.647 368.975a1.71 1.71 0 0 1 1.772-1.745 1.98 1.98 0 0 1 1.086.301l.159-.682a2.76 2.76 0 0 0-1.334-.32 2.435 2.435 0 0 0-2.58 2.285 2.441 2.441 0 0 0 2.58 2.598c.403.015.804-.06 1.175-.22l.179-.873c-.373.255-.814.39-1.265.391a1.707 1.707 0 0 1-1.772-1.735ZM637.864 369.587a1.127 1.127 0 0 1-1.225 1.022 1.13 1.13 0 0 1-1.015-1.022v-3.008h-.746v3.008a1.876 1.876 0 0 0 2.003 1.743 1.878 1.878 0 0 0 1.73-1.743v-3.008h-.747ZM697.332 366.619v4.703h.746v-2.066h.488l1.384 2.066h.876l-1.453-2.116a1.326 1.326 0 0 0-.369-2.587Zm.746.631h.817a.7.7 0 0 1 .697.702.7.7 0 0 1-.697.702h-.817ZM656.253 366.619v4.703H657v-2.066h.488l1.384 2.066h.876l-1.454-2.116a1.325 1.325 0 0 0-.368-2.587Zm.747.631h.816a.7.7 0 0 1 .697.702.7.7 0 0 1-.697.702H657ZM691.089 366.619h-.906l-1.772 2.035v-2.035h-.747v4.703h.747v-2.076l1.742 2.076h1.006l-2.091-2.397 2.021-2.306ZM643.32 369.256l.01.642-.01.01-.269-.351-2.508-2.938h-.538v4.703h.747v-2.728l-.01-.652h.01l.278.351 2.689 3.079h.348v-4.753h-.747v2.637ZM678.634 366.528a2.438 2.438 0 0 0-2.429 2.447 2.438 2.438 0 0 0 2.429 2.447 2.438 2.438 0 0 0 2.429-2.447 2.438 2.438 0 0 0-2.429-2.447Zm0 4.192a1.748 1.748 0 0 1-1.801-1.694 1.75 1.75 0 0 1 1.682-1.814 1.748 1.748 0 0 1 1.802 1.763 1.72 1.72 0 0 1-1.683 1.745ZM693.777 366.528a2.438 2.438 0 0 0-2.429 2.447 2.438 2.438 0 0 0 2.429 2.447 2.439 2.439 0 0 0 2.43-2.447 2.43 2.43 0 0 0-2.41-2.447h-.02Zm0 4.192a1.747 1.747 0 0 1-1.81-1.683 1.749 1.749 0 0 1 1.671-1.824 1.748 1.748 0 0 1 1.811 1.684l.001.078a1.709 1.709 0 0 1-1.672 1.745h-.001ZM662.237 368.654l-.637-.25a.751.751 0 0 1-.518-.662c0-.24.189-.542.727-.542.312.002.617.096.876.271l.14-.672a1.911 1.911 0 0 0-.997-.27 1.276 1.276 0 0 0-1.443 1.273c-.003.366.153.714.428.953.132.103.276.19.428.26.171.085.348.158.528.221.386.076.65.438.607.832 0 .472-.518.672-.866.672a2.37 2.37 0 0 1-1.225-.451l.13.852c.344.19.733.284 1.125.271 1.413 0 1.583-1.003 1.583-1.424a1.394 1.394 0 0 0-.886-1.334ZM649.533 371.372l1.911-4.753h-.826l-1.125 2.818-.14.521h-.02l-.139-.521-1.125-2.818h-.826l1.911 4.753h.379ZM708.184 360.361v-9.025a1 1 0 0 0-.996-1.003h-8.164v1.725h7.238v8.283h-1.364v-4.914h-1.872v4.934h-1.403v-4.934h-1.862v4.934h-1.832v1.725h11.051v-1.725ZM679.839 353.973h-1.235v-4.141h-1.861v8.022h-4.371v-6.107h2.768v-1.755h-4.64v8.674a1 1 0 0 0 .996 1.003h5.276v3.76h.896a1 1 0 0 0 .996-1.002v-6.669h1.235v7.642h.896c.55 0 .995-.45.995-1.003v-12.565h-1.871ZM665.87 357.894h-8.74v1.745h7.815v3.76h.936a1 1 0 0 0 .995-1.002v-3.55a.999.999 0 0 0-1.005-.953ZM666.846 349.832h-1.901v7.34h.936a1 1 0 0 0 .995-1.003v-2.055h1.633v-1.785h-1.663ZM653.107 350.975a1 1 0 0 0-.995-1.003h-8.96v1.755h8.034v2.858h-3.336v-2.006h-1.931v2.006h-3.564v1.745h11.578v-1.725h-.826ZM639.258 350.975a1 1 0 0 0-.995-1.003h-8.96v1.755h8.034v2.758h-8.831v1.745h4.47v2.136h-3.723v1.754h8.173v3.26h.926a1 1 0 0 0 .996-1.003v-3.009a1 1 0 0 0-.996-1.002h-3.434v-2.116h5.157v-1.745h-.817ZM625.25 349.832h-1.901v9.486h.925a1 1 0 0 0 .996-1.003v-4.071h1.623v-1.785h-1.643ZM617.554 358.075h-1.901v4.212a1 1 0 0 0 .995 1.002h8.742v-1.775h-7.836ZM659.718 356.881c1.803.028 3.287-1.422 3.315-3.238v-.01a2.204 2.204 0 0 0-.617-1.575h1.095v-1.745h-2.808v-1.153h-1.99v1.153h-2.788v1.745h1.095a2.205 2.205 0 0 0-.617 1.624c.048 1.801 1.526 3.228 3.315 3.2Zm0-4.863a1.607 1.607 0 0 1 1.7 1.51 1.61 1.61 0 0 1-1.501 1.713 1.607 1.607 0 0 1-1.702-1.609 1.56 1.56 0 0 1 1.503-1.574ZM694.116 357.894h-8.742v1.745h7.826v3.76h.926c.55 0 .995-.448.995-1.002v-3.53a.998.998 0 0 0-1.005-.973ZM695.101 349.832H693.2v7.34h.926c.55 0 .995-.449.995-1.003v-2.055h1.623v-1.785h-1.623ZM687.963 356.881c1.809.028 3.298-1.426 3.325-3.248a2.214 2.214 0 0 0-.627-1.625h1.095v-1.695h-2.807v-1.153h-1.992v1.153h-2.807v1.745h1.105a2.173 2.173 0 0 0-.627 1.624c.049 1.81 1.539 3.239 3.335 3.2Zm0-4.863a1.606 1.606 0 0 1 1.727 1.479 1.61 1.61 0 0 1-1.468 1.74 1.606 1.606 0 0 1-1.732-1.605 1.559 1.559 0 0 1 1.473-1.574ZM618.112 356.881c1.809.028 3.297-1.426 3.325-3.248 0-.593-.237-1.16-.657-1.575h1.095v-1.745h-2.778v-1.153h-1.99v1.153h-2.788v1.745h1.105c-.41.419-.632.987-.618 1.574.022 1.817 1.502 3.271 3.305 3.25Zm0-4.863a1.607 1.607 0 0 1 1.7 1.51 1.61 1.61 0 0 1-1.501 1.713 1.607 1.607 0 0 1-1.703-1.609 1.56 1.56 0 0 1 1.504-1.574ZM648.239 356.841c-2.038-.05-3.734 1.568-3.794 3.62-.115 2.113 1.491 3.92 3.589 4.036 2.097.116 3.89-1.502 4.006-3.614.116-2.113-1.49-3.92-3.588-4.036a3.769 3.769 0 0 0-.213-.006Zm0 5.606a1.998 1.998 0 0 1-2.05-1.945 2 2 0 0 1 1.93-2.064 1.997 1.997 0 0 1 2.051 2.003 2 2 0 0 1-1.931 2.006Z"/></g></g></g></g></svg>